<svg width="241" height="58" viewBox="0 0 241 58" fill="none" xmlns="http://www.w3.org/2000/svg">
<path d="M67.4041 24.6383H55.6752L53.2475 30.1776H50L59.9947 8.02051H63.1161L73.1424 30.1776H69.8318L67.4041 24.6383ZM66.3006 22.1061L61.5397 11.2491L56.7788 22.1061H66.3006Z" fill="#F6F6F6"/>
<path d="M84.487 20.4285H79.8837V30.1776H76.7939V8.02051H79.8837V17.643H84.55L91.4864 8.02051H94.8601L86.9778 18.7509L95.2384 30.1776H91.6441L84.487 20.4285Z" fill="#F6F6F6"/>
<path d="M112.35 24.6383H100.622L98.1938 30.1776H94.9463L104.941 8.02051H108.062L118.089 30.1776H114.778L112.35 24.6383ZM111.247 22.1061L106.486 11.2491L101.725 22.1061H111.247Z" fill="#F6F6F6"/>
<path d="M142.862 27.4238V35.0205H139.93V30.1776H121.769L121.738 35.0205H118.806L118.837 27.4238H119.909C121.296 27.3394 122.274 26.2421 122.841 24.1319C123.409 22.0006 123.756 19.0041 123.882 15.1424L124.103 8.02051H139.615V27.4238H142.862ZM126.656 15.4273C126.551 18.5504 126.299 21.1354 125.9 23.1823C125.521 25.2292 124.901 26.643 124.04 27.4238H136.494V10.7743H126.814L126.656 15.4273Z" fill="#F6F6F6"/>
<path d="M163.032 27.4238V30.1776H147.015V8.02051H162.591V10.7743H150.168V17.5797H161.235V20.2702H150.168V27.4238H163.032Z" fill="#F6F6F6"/>
<path d="M188.288 30.1776L188.257 14.0346L180.28 27.4871H178.829L170.852 14.1295V30.1776H167.826V8.02051H170.411L179.618 23.5938L188.698 8.02051H191.283L191.315 30.1776H188.288Z" fill="#F6F6F6"/>
<path d="M198.027 8.02051H201.148V25.1131L214.202 8.02051H217.102V30.1776H214.012V13.1166L200.928 30.1776H198.027V8.02051Z" fill="#F6F6F6"/>
<path d="M240 8.02051V30.1776H236.91V23.7204H230.825C230.447 23.7204 230.163 23.7098 229.974 23.6887L225.56 30.1776H222.218L227.105 23.1506C225.528 22.6231 224.32 21.7474 223.479 20.5234C222.638 19.2784 222.218 17.7696 222.218 15.9971C222.218 13.4859 223.016 11.534 224.614 10.1413C226.232 8.72742 228.408 8.02051 231.14 8.02051H240ZM225.402 15.9654C225.402 17.6114 225.875 18.8775 226.821 19.7638C227.788 20.6289 229.207 21.0615 231.077 21.0615H236.91V10.7743H231.266C229.375 10.7743 227.924 11.2175 226.915 12.1037C225.906 12.99 225.402 14.2772 225.402 15.9654Z" fill="#F6F6F6"/>
<path d="M54.9328 43.1658C56.571 43.1658 57.8599 43.5591 58.7995 44.3459C59.7391 45.1327 60.2089 46.216 60.2089 47.5959C60.2089 48.9758 59.7391 50.0591 58.7995 50.8459C57.8599 51.6327 56.571 52.0261 54.9328 52.0261H51.8069V55.8753H50V43.1658H54.9328ZM54.8786 50.4465C56.0229 50.4465 56.8962 50.2044 57.4985 49.7202C58.1008 49.224 58.402 48.5159 58.402 47.5959C58.402 46.676 58.1008 45.974 57.4985 45.4898C56.8962 44.9935 56.0229 44.7454 54.8786 44.7454H51.8069V50.4465H54.8786Z" fill="#F6F6F6"/>
<path d="M71.8108 54.2956V55.8753H62.6319V43.1658H71.5579V44.7454H64.4388V48.649H70.7809V50.1923H64.4388V54.2956H71.8108Z" fill="#F6F6F6"/>
<path d="M86.2846 55.8753L86.2666 46.6155L81.6952 54.332H80.864L76.2926 46.6699V55.8753H74.558V43.1658H76.0396L81.3157 52.0987L86.5195 43.1658H88.0012L88.0192 55.8753H86.2846Z" fill="#F6F6F6"/>
<path d="M97.5576 56.0205C96.2807 56.0205 95.1303 55.7421 94.1064 55.1853C93.0825 54.6164 92.2755 53.8357 91.6852 52.8431C91.107 51.8506 90.8179 50.743 90.8179 49.5205C90.8179 48.298 91.107 47.1904 91.6852 46.1979C92.2755 45.2053 93.0825 44.4307 94.1064 43.8739C95.1303 43.305 96.2807 43.0205 97.5576 43.0205C98.8224 43.0205 99.9667 43.305 100.991 43.8739C102.015 44.4307 102.816 45.2053 103.394 46.1979C103.972 47.1783 104.261 48.2859 104.261 49.5205C104.261 50.7551 103.972 51.8687 103.394 52.8613C102.816 53.8417 102.015 54.6164 100.991 55.1853C99.9667 55.7421 98.8224 56.0205 97.5576 56.0205ZM97.5576 54.4046C98.4851 54.4046 99.3162 54.1928 100.051 53.7691C100.798 53.3455 101.382 52.7645 101.804 52.0261C102.237 51.2756 102.454 50.4404 102.454 49.5205C102.454 48.6006 102.237 47.7714 101.804 47.0331C101.382 46.2826 100.798 45.6956 100.051 45.2719C99.3162 44.8483 98.4851 44.6364 97.5576 44.6364C96.63 44.6364 95.7868 44.8483 95.0279 45.2719C94.2811 45.6956 93.6908 46.2826 93.2572 47.0331C92.8356 47.7714 92.6248 48.6006 92.6248 49.5205C92.6248 50.4404 92.8356 51.2756 93.2572 52.0261C93.6908 52.7645 94.2811 53.3455 95.0279 53.7691C95.7868 54.1928 96.63 54.4046 97.5576 54.4046Z" fill="#F6F6F6"/>
<path d="M117.969 43.1658V55.8753H116.162V50.2105H108.899V55.8753H107.092V43.1658H108.899V48.6308H116.162V43.1658H117.969Z" fill="#F6F6F6"/>
<path d="M130.514 44.7454H126.178V55.8753H124.407V44.7454H120.089V43.1658H130.514V44.7454Z" fill="#F6F6F6"/>
<path d="M143.498 43.1658V55.8753H141.691V50.2105H134.427V55.8753H132.62V43.1658H134.427V48.6308H141.691V43.1658H143.498Z" fill="#F6F6F6"/>
<path d="M152.899 47.5959C154.405 47.5959 155.555 47.9348 156.35 48.6127C157.157 49.2905 157.561 50.2891 157.561 51.6085C157.561 53.0005 157.127 54.0596 156.26 54.7859C155.404 55.5121 154.176 55.8753 152.574 55.8753H147.352V43.1658H149.141V47.5959H152.899ZM152.501 54.4409C153.549 54.4409 154.35 54.2049 154.905 53.7328C155.471 53.2486 155.754 52.5526 155.754 51.6448C155.754 49.9018 154.67 49.0303 152.501 49.0303H149.141V54.4409H152.501ZM159.566 43.1658H161.355V55.8753H159.566V43.1658Z" fill="#F6F6F6"/>
<path d="M165.929 43.1658L169.236 47.8138L172.543 43.1658H174.657L170.374 49.2663L175 55.8753H172.868L169.236 50.8096L165.622 55.8753H163.544L168.152 49.3389L163.852 43.1658H165.929Z" fill="#F6F6F6"/>
<path d="M192.063 43.1646L186.43 53.5537C185.983 54.382 185.458 55.0002 184.854 55.4083C184.25 55.8164 183.592 56.0205 182.88 56.0205C182.324 56.0205 181.757 55.8945 181.177 55.6424L181.648 54.2019C182.095 54.358 182.493 54.436 182.844 54.436C183.64 54.436 184.299 54.0159 184.818 53.1756L185.108 52.7255L180 43.1646H181.938L186.049 51.159L190.269 43.1646H192.063Z" fill="#F6F6F6"/>
<path d="M199.379 55.9125C198.111 55.9125 196.964 55.6364 195.938 55.0842C194.923 54.52 194.126 53.7518 193.547 52.7795C192.967 51.7952 192.677 50.6909 192.677 49.4665C192.677 48.2421 192.967 47.1438 193.547 46.1715C194.126 45.1872 194.929 44.4189 195.956 43.8668C196.982 43.3026 198.129 43.0205 199.397 43.0205C200.387 43.0205 201.293 43.1886 202.114 43.5247C202.935 43.8488 203.635 44.3349 204.215 44.9831L203.037 46.1175C202.084 45.1212 200.894 44.623 199.469 44.623C198.528 44.623 197.676 44.8331 196.916 45.2532C196.155 45.6733 195.557 46.2555 195.122 46.9997C194.7 47.732 194.489 48.5542 194.489 49.4665C194.489 50.3788 194.7 51.207 195.122 51.9513C195.557 52.6835 196.155 53.2597 196.916 53.6798C197.676 54.0999 198.528 54.31 199.469 54.31C200.882 54.31 202.071 53.8058 203.037 52.7975L204.215 53.9319C203.635 54.5801 202.929 55.0722 202.096 55.4083C201.275 55.7444 200.369 55.9125 199.379 55.9125Z" fill="#F6F6F6"/>
<path d="M216.661 43.1646V55.7684H214.886V44.731H209.271L209.145 48.4222C209.084 50.1627 208.939 51.5731 208.71 52.6535C208.493 53.7338 208.143 54.5501 207.66 55.1022C207.177 55.6424 206.524 55.9125 205.703 55.9125C205.329 55.9125 204.949 55.8645 204.562 55.7684L204.689 54.1659C204.882 54.214 205.076 54.238 205.269 54.238C205.788 54.238 206.205 54.0339 206.518 53.6258C206.832 53.2056 207.068 52.5814 207.225 51.7532C207.382 50.9249 207.484 49.8326 207.533 48.4762L207.732 43.1646H216.661Z" fill="#F6F6F6"/>
<path d="M230.898 43.1646L225.265 53.5537C224.818 54.382 224.293 55.0002 223.689 55.4083C223.086 55.8164 222.428 56.0205 221.715 56.0205C221.16 56.0205 220.592 55.8945 220.013 55.6424L220.484 54.2019C220.93 54.358 221.329 54.436 221.679 54.436C222.476 54.436 223.134 54.0159 223.653 53.1756L223.943 52.7255L218.835 43.1646H220.773L224.885 51.159L229.105 43.1646H230.898Z" fill="#F6F6F6"/>
<path d="M240.982 44.731H234.462L234.48 55.7684H232.687V43.1646H241L240.982 44.731Z" fill="#F6F6F6"/>
<path fill-rule="evenodd" clip-rule="evenodd" d="M32.6198 12.8642C36.0194 15.657 38.1896 19.8939 38.1896 24.6396C38.1896 35.3815 30.0602 36.7859 30.0602 45.1749C30.0602 46.3037 29.1354 47.2284 28.0067 47.2284H17.9112C16.7824 47.2284 15.8577 46.3037 15.8577 45.1749C15.8577 36.7859 7.72835 35.3842 7.72835 24.6396C7.72835 19.8966 9.89582 15.6597 13.2954 12.8669L14.1221 12.8457C15.7358 12.8033 17.3442 12.9384 18.9367 13.1928C14.2122 14.8515 10.8285 19.3481 10.8285 24.6396C10.8285 27.1806 11.3426 29.319 12.6277 31.5103C13.8042 33.5135 15.386 35.2596 16.6155 37.2416C17.9722 39.4277 18.7512 41.6269 18.9208 44.1256H26.9945C27.1641 41.6243 27.9431 39.4277 29.2997 37.2416C30.5292 35.2596 32.1111 33.5108 33.2876 31.5076C34.5753 29.3163 35.0867 27.178 35.0867 24.6369C35.0867 19.3454 31.7004 14.8488 26.9759 13.1901C28.5684 12.9384 30.1768 12.8059 31.7931 12.8457L32.6198 12.8642Z" fill="#F6F6F6"/>
<path fill-rule="evenodd" clip-rule="evenodd" d="M38.6365 40.1724C38.4352 40.3738 38.1066 40.3738 37.9052 40.1724L34.9216 37.1888C34.7203 36.9874 34.7203 36.6589 34.9216 36.4575C35.123 36.2561 35.4516 36.2561 35.653 36.4575L38.6365 39.4411C38.8379 39.6425 38.8379 39.971 38.6365 40.1724ZM44.3758 18.7574C44.45 19.0329 44.2857 19.3165 44.0102 19.3906L39.9349 20.4823C39.662 20.5565 39.3758 20.3922 39.3016 20.1167C39.2274 19.8411 39.3917 19.5576 39.6673 19.4834L43.7425 18.3917C44.0181 18.3175 44.3016 18.4818 44.3758 18.7574ZM38.6365 8.81825C38.8379 9.01963 38.8379 9.3482 38.6365 9.54958L35.653 12.5332C35.4516 12.7345 35.123 12.7345 34.9216 12.5332C34.7203 12.3318 34.7203 12.0032 34.9216 11.8018L37.9052 8.81825C38.1092 8.61688 38.4378 8.61688 38.6365 8.81825ZM7.28505 40.1724C7.08367 39.971 7.08367 39.6425 7.28505 39.4411L10.2686 36.4575C10.47 36.2561 10.7986 36.2561 11 36.4575C11.2013 36.6589 11.2013 36.9874 11 37.1888L8.01637 40.1724C7.81234 40.3738 7.48378 40.3738 7.28505 40.1724ZM1.54575 30.2333C1.47156 29.9577 1.63584 29.6742 1.91141 29.6L5.98668 28.5083C6.26226 28.4341 6.54578 28.5984 6.61997 28.874C6.69416 29.1496 6.52988 29.4331 6.2543 29.5073L2.17904 30.599C1.90347 30.6705 1.61994 30.5062 1.54575 30.2333ZM1.54575 18.7574C1.61994 18.4818 1.90347 18.3175 2.17904 18.3917L6.2543 19.4834C6.52988 19.5576 6.69416 19.8411 6.61997 20.1167C6.54578 20.3896 6.26226 20.5565 5.98668 20.4823L1.91141 19.3906C1.63584 19.3165 1.47156 19.0303 1.54575 18.7574ZM44.3758 30.2333C44.3016 30.5089 44.0181 30.6732 43.7425 30.599L39.6673 29.5073C39.3944 29.4331 39.2274 29.1496 39.3016 28.874C39.3758 28.5984 39.6593 28.4341 39.9349 28.5083L44.0102 29.6C44.2857 29.6742 44.45 29.9577 44.3758 30.2333Z" fill="#F6F6F6"/>
<path fill-rule="evenodd" clip-rule="evenodd" d="M18.0692 51.8655C17.5499 51.8655 17.1233 52.2921 17.1233 52.8115C17.1233 53.3308 17.5499 53.7574 18.0692 53.7574H27.86C28.3793 53.7574 28.8059 53.3308 28.8059 52.8115C28.8059 52.2921 28.3793 51.8655 27.86 51.8655H18.0692ZM24.6114 57.0961H27.1737C27.693 57.0961 28.1196 56.6695 28.1196 56.1501C28.1196 55.6308 27.693 55.2042 27.1737 55.2042H18.7529C18.2335 55.2042 17.8069 55.6308 17.8069 56.1501C17.8069 56.6695 18.2335 57.0961 18.7529 57.0961H21.3125L21.4291 57.3584C21.4741 57.4617 21.6013 57.8062 21.7444 57.8062H24.1822C24.3279 57.8062 24.4498 57.467 24.4948 57.361L24.6114 57.0961ZM17.5314 48.5269C17.012 48.5269 16.5854 48.9535 16.5854 49.4728C16.5854 49.9922 17.012 50.4188 17.5314 50.4188H28.3952C28.9146 50.4188 29.3412 49.9922 29.3412 49.4728C29.3412 48.9535 28.9146 48.5269 28.3952 48.5269H17.5314Z" fill="#F6F6F6"/>
<path fill-rule="evenodd" clip-rule="evenodd" d="M0.0695872 11.2801C0.212672 11.0336 0.52799 10.9489 0.774414 11.0893L8.11944 15.3288C8.36587 15.4719 8.45065 15.7872 8.30757 16.0337C8.16448 16.2801 7.84917 16.3649 7.60274 16.2218L0.257719 11.9822C0.0112951 11.8418 -0.0734978 11.5238 0.0695872 11.2801ZM0.0695872 37.711C-0.0734978 37.4646 0.0112951 37.1466 0.257719 37.0062L7.60274 32.7667C7.84917 32.6236 8.16713 32.7084 8.30757 32.9548C8.45065 33.2012 8.36587 33.5192 8.11944 33.6596L0.774414 37.8992C0.52799 38.0422 0.210022 37.9575 0.0695872 37.711ZM45.8515 37.711C45.7084 37.9575 45.3931 38.0422 45.1466 37.8992L37.8016 33.6596C37.5552 33.5165 37.4704 33.2012 37.6135 32.9548C37.7566 32.7084 38.0719 32.6236 38.3183 32.7667L45.6633 37.0062C45.9098 37.1466 45.9946 37.4646 45.8515 37.711ZM45.8515 11.2801C45.9946 11.5265 45.9098 11.8445 45.6633 11.9849L38.3183 16.2244C38.0719 16.3675 37.7539 16.2827 37.6135 16.0363C37.4704 15.7899 37.5552 15.4719 37.8016 15.3315L45.1466 11.0919C45.3931 10.9462 45.711 11.0336 45.8515 11.2801Z" fill="#F6F6F6"/>
<path fill-rule="evenodd" clip-rule="evenodd" d="M6.39265 5.18285L22.9614 0L39.5301 5.18285L29.5751 8.29628L31.8167 8.03395V12.0165C28.8649 11.9476 25.9131 12.4272 22.9614 13.1983C20.0096 12.4351 17.0578 11.9423 14.106 12.0165V7.5941L10.7514 6.54481V11.3805C11.0456 11.5528 11.2443 11.8734 11.2443 12.2391C11.2443 12.5464 11.1065 12.8194 10.8892 13.0022V14.547C10.8892 14.743 10.5898 14.7457 10.5898 14.547V14.0806C10.5845 13.9826 10.4017 13.9243 10.4017 14.1283V15.3233C10.4017 15.5194 10.0996 15.5221 10.0996 15.3233V13.76C10.0996 13.6355 9.91148 13.6381 9.91148 13.76V14.804C9.91148 15.0001 9.61206 15.0027 9.61206 14.804V12.9995C9.39478 12.8167 9.25699 12.5438 9.25699 12.2364C9.25699 11.8708 9.45572 11.5501 9.74984 11.3779V6.22949L6.39265 5.18285Z" fill="#F6F6F6"/>
<path fill-rule="evenodd" clip-rule="evenodd" d="M34.0016 25.8748C34.0016 26.5081 33.4876 27.0222 32.8543 27.0222C32.221 27.0222 31.707 26.5081 31.707 25.8748C31.707 23.7868 30.8617 21.8949 29.4945 20.5277C28.1272 19.1604 26.2353 18.3152 24.1473 18.3152C23.514 18.3152 23 17.8011 23 17.1678C23 16.5346 23.514 16.0205 24.1473 16.0205C26.8686 16.0205 29.3328 17.1228 31.1161 18.9061C32.8994 20.6893 34.0016 23.1536 34.0016 25.8748Z" fill="#EEEDED"/>
</svg>
